<?xml version="1.0" encoding="UTF-8" standalone="no"?>
<svg
   xmlns:dc="http://purl.org/dc/elements/1.1/"
   xmlns:cc="http://creativecommons.org/ns#"
   xmlns:rdf="http://www.w3.org/1999/02/22-rdf-syntax-ns#"
   xmlns:svg="http://www.w3.org/2000/svg"
   xmlns="http://www.w3.org/2000/svg"
   xmlns:sodipodi="http://sodipodi.sourceforge.net/DTD/sodipodi-0.dtd"
   xmlns:inkscape="http://www.inkscape.org/namespaces/inkscape"
   style="overflow:hidden"
   width="28.45661"
   version="1.1"
   height="27.360001"
   id="svg2"
   inkscape:version="0.48.3.1 r9886"
   sodipodi:docname="star.svg">
  <metadata
     id="metadata10">
    <rdf:RDF>
      <cc:Work
         rdf:about="">
        <dc:format>image/svg+xml</dc:format>
        <dc:type
           rdf:resource="http://purl.org/dc/dcmitype/StillImage" />
      </cc:Work>
    </rdf:RDF>
  </metadata>
  <defs
     id="defs8" />
  <sodipodi:namedview
     pagecolor="#ffffff"
     bordercolor="#666666"
     borderopacity="1"
     objecttolerance="10"
     gridtolerance="10"
     guidetolerance="10"
     inkscape:pageopacity="0"
     inkscape:pageshadow="2"
     inkscape:window-width="997"
     inkscape:window-height="734"
     id="namedview6"
     showgrid="false"
     fit-margin-left="1"
     fit-margin-top="1"
     fit-margin-right="1"
     fit-margin-bottom="1"
     inkscape:zoom="1.1778959"
     inkscape:cx="8.8256471"
     inkscape:cy="-75.667944"
     inkscape:window-x="0"
     inkscape:window-y="24"
     inkscape:window-maximized="0"
     inkscape:current-layer="svg2" />
  <path
     d="m 21.170741,26.36 c -0.419,0 -0.835,-0.132 -1.189,-0.392 l -5.751,-4.247 -5.7509997,4.247 c -0.354,0.26 -0.771,0.392 -1.189,0.392 -0.412,0 -0.824,-0.128 -1.175,-0.384 -0.707,-0.511 -1,-1.422 -0.723,-2.25 l 2.26,-6.783 -5.815,-4.158 c -0.71,-0.509 -1.00900002,-1.416 -0.74,-2.246 0.268,-0.826 1.037,-1.382 1.904,-1.382 0.004,0 0.01,0 0.014,0 l 7.1499997,0.056 2.157,-6.816 c 0.262,-0.831 1.035,-1.397 1.906,-1.397 0.871,0 1.645,0.566 1.906,1.397 l 2.155,6.816 7.15,-0.056 c 0.004,0 0.01,0 0.015,0 0.867,0 1.636,0.556 1.903,1.382 0.271,0.831 -0.028,1.737 -0.739,2.246 l -5.815,4.158 2.263,6.783 c 0.276,0.826 -0.017,1.737 -0.721,2.25 -0.348,0.256 -0.762,0.384 -1.175,0.384 l 0,0 z"
     id="path4"
     inkscape:connector-curvature="0"
     style="fill:#777777;stroke:none;fill-opacity:1" />
</svg>
